<?xml version="1.0" encoding="UTF-8" standalone="no"?>
<svg
   version="1.1"
   id="Layer_1"
   x="0px"
   y="0px"
   width="568.99518"
   viewBox="0 0 568.99518 213.23129"
   enable-background="new 0 0 640 640"
   xml:space="preserve"
   sodipodi:docname="logo2.svg"
   height="213.23129"
   inkscape:version="1.3.2 (091e20ef0f, 2023-11-25, custom)"
   xmlns:inkscape="http://www.inkscape.org/namespaces/inkscape"
   xmlns:sodipodi="http://sodipodi.sourceforge.net/DTD/sodipodi-0.dtd"
   xmlns="http://www.w3.org/2000/svg"
   xmlns:svg="http://www.w3.org/2000/svg"><defs
   id="defs7" /><sodipodi:namedview
   id="namedview7"
   pagecolor="#ffffff"
   bordercolor="#000000"
   borderopacity="0.25"
   inkscape:showpageshadow="2"
   inkscape:pageopacity="0.0"
   inkscape:pagecheckerboard="0"
   inkscape:deskcolor="#d1d1d1"
   inkscape:zoom="1.8296875"
   inkscape:cx="277.91631"
   inkscape:cy="100.83689"
   inkscape:window-width="3440"
   inkscape:window-height="1375"
   inkscape:window-x="1920"
   inkscape:window-y="0"
   inkscape:window-maximized="1"
   inkscape:current-layer="Layer_1" />
<path
   fill="#383296"
   opacity="1"
   stroke="none"
   d="m 199.62347,38.159835 c 19.72229,11.70697 32.56473,28.32123 38.05603,50.1926 10.84577,43.197385 -18.00244,88.844605 -63.78393,96.410375 -38.27631,6.32547 -74.894142,-16.26664 -87.532982,-53.57035 -10.85241,-32.030975 0.40485,-66.678925 27.645202,-87.007905 17.90239,-13.36025 37.7053,-18.6521 59.60219,-15.43448 9.03168,1.32715 17.71558,4.521 26.01349,9.40976 M 184.88069,171.20479 c 0.7613,-0.3371 1.51243,-0.69967 2.28535,-1.0076 37.15171,-14.80102 53.0166,-56.21444 36.94156,-91.798495 -16.87846,-37.36249 -59.61871,-50.57043 -94.83856,-32.83191 -26.98033,13.58872 -41.946002,46.0304 -35.577352,74.950625 9.463602,42.97455 52.784902,64.81022 91.189002,50.68738 z"
   id="path1" />
<path
   fill="#383296"
   opacity="1"
   stroke="none"
   d="m 357.9963,167.91414 c -13.11877,-10.9996 -21.96862,-24.26138 -26.41851,-40.57559 -8.24665,-30.233955 2.5968,-63.296025 27.09805,-82.185645 29.47601,-22.72499 66.84463,-22.69847 96.33285,-1.28039 23.52118,17.08407 35.99079,50.46353 29.50885,78.864165 -7.24481,31.74341 -27.00665,51.83332 -57.81366,60.54383 -25.12011,7.10254 -48.02569,0.79025 -68.70758,-15.36637 m 38.63358,6.88974 c 15.16678,2.43329 29.46164,-0.37616 42.98706,-7.36734 20.23666,-10.46008 32.07272,-27.65014 35.86759,-49.4866 4.18994,-24.109505 -3.82654,-45.073305 -21.71351,-61.776035 -19.32647,-18.04691 -42.51162,-22.7341 -67.20154,-15.11887 -32.86419,10.13651 -53.6293,44.2157 -46.9595,78.288945 2.99973,15.32456 10.2811,28.30368 22.05631,38.72122 9.85376,8.71772 21.29232,14.03751 34.96359,16.73868 z"
   id="path2" />
<path
   fill="#383296"
   opacity="1"
   stroke="none"
   d="m 535.8143,69.048105 c -13.39203,-20.30661 -26.58667,-40.31202 -39.77948,-60.3186296 -0.45813,-0.69466 -0.97614,-1.36397 -1.33179,-2.10922 -0.87842,-1.84072 -2.95874,-3.78491 -0.37378,-5.68340996 2.56213,-1.8817 4.89746,-0.70107 6.47247,1.52686996 4.89679,6.92702 9.71985,13.9104896 14.40107,20.9848596 16.71167,25.25487 33.28625,50.60066 50.06286,75.81215 4.79212,7.201515 5.05493,7.066015 0.27252,14.307565 -20.81927,31.52487 -41.65716,63.03741 -62.48895,94.55395 -0.64142,0.97037 -1.15198,2.07691 -1.96448,2.87451 -1.93121,1.89576 -4.32226,2.87744 -6.75512,1.22934 -2.69153,-1.82333 -0.73761,-3.98434 0.33832,-5.64007 9.33947,-14.37213 18.7647,-28.68885 28.2138,-42.98941 11.74231,-17.77121 23.4754,-35.54907 35.35101,-53.23108 2.21283,-3.29468 1.26081,-5.69904 -0.68335,-8.57215 -7.27441,-10.750275 -14.37292,-21.619565 -21.7351,-32.745275 z"
   id="path3" />
<path
   fill="#383296"
   opacity="1"
   stroke="none"
   d="M 66.519698,209.27181 C 45.770976,177.88112 25.225589,146.78142 4.6710274,115.68773 c -0.825279,-1.24838 -1.691837,-2.47525 -2.617573,-3.65039 -2.57092696,-3.26358 -2.77719896,-6.33252 -0.338817,-9.99536 C 20.62237,73.639445 39.391986,45.144975 58.199968,16.676085 c 2.84414,-4.30505 5.59883,-8.6710296 8.52313,-12.9205896 1.72719,-2.50995 3.72709,-5.32448 7.224,-2.69783 3.16667,2.37857 0.77794,4.75711 -0.64182,6.89947 -20.496865,30.9290496 -40.964844,61.8776296 -61.6059,92.7102746 -2.8645436,4.2789 -3.0807756,7.5166 -0.06892,12.01724 15.544056,23.22772 31.510586,46.17832 46.309788,69.90292 5.105396,8.18448 10.631726,16.10541 15.862396,24.21344 1.01997,1.58106 3.69611,3.25953 0.76625,5.40586 -2.47151,1.8106 -4.69802,1.08059 -6.5948,-1.08933 -0.43751,-0.50049 -0.83618,-1.03488 -1.45439,-1.84573 z"
   id="path4" />
<path
   fill="#383296"
   opacity="1"
   stroke="none"
   d="m 267.7305,174.46123 c -4.79993,5.85977 -7.50849,13.13507 -14.83081,16.22473 -2.32868,0.98258 -4.74683,2.44757 -6.92945,0.30396 -2.44934,-2.40561 -0.17923,-4.53974 1.00025,-6.65137 6.81854,-12.2074 13.307,-24.54004 15.10498,-38.71322 0.44003,-3.46869 2.20212,-5.615 5.86013,-6.49103 4.02149,-0.96308 7.9043,-2.52021 11.82477,-3.88404 2.11283,-0.73498 4.11438,-1.40292 5.94175,0.64844 1.80813,2.02979 0.92233,4.03818 0.10116,6.04935 -4.67435,11.44827 -11.07516,21.94165 -18.07278,32.51318 z"
   id="path5" />
<path
   fill="#383296"
   opacity="1"
   stroke="none"
   d="m 202.04101,101.68026 c 5.3308,0.0359 10.16281,0.0312 14.99311,0.12109 3.3573,0.0625 5.29791,1.65912 5.30053,5.21912 0.003,3.60226 -2.47653,4.61212 -5.30704,4.61322 -8.49095,0.003 -16.98155,-0.2862 -25.4732,-0.37793 -6.48973,-0.0701 -12.98993,0.1969 -19.46826,-0.0836 -4.66506,-0.202 -6.08231,1.70852 -6.02326,6.17514 0.19605,14.8258 0.0905,29.65555 0.11425,44.48376 0.006,3.53034 -0.98847,6.6941 -5.05802,6.57434 -4.24212,-0.12484 -5.1384,-3.39428 -5.11796,-7.1398 0.0772,-14.16049 0.0368,-28.32162 0.0667,-42.48245 0.0157,-7.42816 -0.49805,-8.03732 -7.98631,-7.4371 -14.49035,1.1615 -28.96744,-0.78821 -43.45366,-0.0547 -2.65059,0.13422 -4.47673,-1.01022 -4.773722,-3.94745 -0.28079,-2.7771 1.043642,-4.5347 3.528322,-5.29538 1.39191,-0.42615 2.95885,-0.37527 4.44713,-0.37713 14.1617,-0.0177 28.32581,-0.14277 42.4838,0.091 4.38165,0.0723 5.82173,-1.31952 5.72757,-5.722445 -0.30956,-14.47611 0.67495,-28.95847 -0.044,-43.44144 -0.12404,-2.49844 -0.24945,-5.15463 2.36605,-6.65808 4.17687,-2.40097 7.68264,-0.0743 7.72516,5.31766 0.11566,14.66079 0.27213,29.32611 0.007,43.98233 -0.09,4.982945 1.29622,6.758915 6.46034,6.551275 9.64774,-0.38785 19.32219,-0.1117 29.48503,-0.11142 z"
   id="path6" />
<path
   fill="#383296"
   opacity="1"
   stroke="none"
   d="m 443.04257,101.68218 c 6.82641,0.009 13.15405,-0.0505 19.47879,0.0582 3.3833,0.0582 6.62976,0.88105 6.49023,5.15442 -0.13479,4.12809 -3.37622,4.33558 -6.53726,4.33533 -28.63437,-0.002 -57.26877,0.003 -85.90314,0.003 -8.14541,-1.5e-4 -16.29135,-0.069 -24.436,0.008 -3.33466,0.0313 -6.16168,-0.40491 -6.11899,-4.61032 0.0409,-4.03006 2.82266,-4.90445 6.12125,-4.91068 17.81451,-0.0336 35.62912,-0.0381 53.44369,-0.0443 12.3205,-0.004 24.64096,0.005 37.46143,0.007 z"
   id="path7" />
</svg>
