<svg version="1.1" id="Layer_1" xmlns="http://www.w3.org/2000/svg" xmlns:xlink="http://www.w3.org/1999/xlink" x="0px" y="0px"
	 width="100%" viewBox="0 0 640 640" enable-background="new 0 0 640 640" xml:space="preserve">
<path fill="#383296" opacity="1.000000" stroke="none"
	d="
M241.580841,257.327240
	C261.303131,269.034210 274.145569,285.648468 279.636871,307.519836
	C290.482635,350.717224 261.634430,396.364441 215.852936,403.930206
	C177.576630,410.255676 140.958801,387.663574 128.319962,350.359863
	C117.467552,318.328888 128.724808,283.680939 155.965164,263.351959
	C173.867554,249.991714 193.670456,244.699860 215.567352,247.917480
	C224.599030,249.244629 233.282928,252.438477 241.580841,257.327240
M226.838058,390.372192
	C227.599365,390.035095 228.350494,389.672516 229.123413,389.364594
	C266.275116,374.563568 282.140015,333.150146 266.064972,297.566101
	C249.186508,260.203613 206.446259,246.995667 171.226410,264.734192
	C144.246078,278.322906 129.280411,310.764587 135.649063,339.684814
	C145.112656,382.659363 188.433960,404.495026 226.838058,390.372192
z"/>
<path fill="#383296" opacity="1.000000" stroke="none"
	d="
M399.953674,387.081543
	C386.834900,376.081940 377.985046,362.820160 373.535156,346.505951
	C365.288513,316.272003 376.131958,283.209930 400.633209,264.320312
	C430.109222,241.595322 467.477844,241.621841 496.966064,263.039917
	C520.487244,280.123993 532.956848,313.503448 526.474915,341.904083
	C519.230103,373.647491 499.468262,393.737396 468.661255,402.447906
	C443.541138,409.550446 420.635559,403.238159 399.953674,387.081543
M438.587250,393.971283
	C453.754028,396.404572 468.048889,393.595123 481.574310,386.603943
	C501.810974,376.143860 513.647034,358.953796 517.441895,337.117340
	C521.631836,313.007843 513.615356,292.044037 495.728394,275.341309
	C476.401917,257.294403 453.216766,252.607208 428.526855,260.222443
	C395.662659,270.358948 374.897552,304.438141 381.567352,338.511383
	C384.567078,353.835938 391.848450,366.815063 403.623657,377.232605
	C413.477417,385.950317 424.915985,391.270111 438.587250,393.971283
z"/>
<path fill="#383296" opacity="1.000000" stroke="none"
	d="
M577.771667,288.215515
	C564.379639,267.908905 551.184998,247.903488 537.992188,227.896881
	C537.534058,227.202225 537.016052,226.532913 536.660400,225.787659
	C535.781982,223.946945 533.701660,222.002747 536.286621,220.104248
	C538.848755,218.222549 541.184082,219.403183 542.759094,221.631119
	C547.655884,228.558136 552.478943,235.541611 557.160156,242.615982
	C573.871826,267.870850 590.446411,293.216644 607.223022,318.428131
	C612.015137,325.629639 612.277954,325.494141 607.495544,332.735687
	C586.676270,364.260559 565.838379,395.773102 545.006592,427.289642
	C544.365173,428.260010 543.854614,429.366547 543.042114,430.164154
	C541.110901,432.059906 538.719849,433.041595 536.286987,431.393494
	C533.595459,429.570160 535.549377,427.409149 536.625305,425.753418
	C545.964783,411.381287 555.390015,397.064575 564.839111,382.764008
	C576.581421,364.992798 588.314514,347.214935 600.190125,329.532928
	C602.402954,326.238251 601.450928,323.833893 599.506775,320.960785
	C592.232361,310.210510 585.133850,299.341217 577.771667,288.215515
z"/>
<path fill="#383296" opacity="1.000000" stroke="none"
	d="
M108.477066,428.439209
	C87.728348,397.048523 67.182961,365.948822 46.628399,334.855133
	C45.803120,333.606750 44.936562,332.379883 44.010826,331.204742
	C41.439899,327.941162 41.233627,324.872223 43.672009,321.209381
	C62.579742,292.806854 81.349358,264.312378 100.157341,235.843491
	C103.001480,231.538437 105.756172,227.172455 108.680473,222.922897
	C110.407661,220.412949 112.407555,217.598419 115.904472,220.225067
	C119.071144,222.603638 116.682411,224.982178 115.262650,227.124542
	C94.765785,258.053589 74.297806,289.002167 53.656750,319.834808
	C50.792206,324.113708 50.575974,327.351410 53.587826,331.852051
	C69.131882,355.079773 85.098412,378.030365 99.897614,401.754974
	C105.003006,409.939453 110.529335,417.860382 115.760010,425.968414
	C116.779976,427.549469 119.456116,429.227936 116.526260,431.374268
	C114.054749,433.184875 111.828239,432.454865 109.931458,430.284943
	C109.493950,429.784454 109.095276,429.250061 108.477066,428.439209
z"/>
<path fill="#383296" opacity="1.000000" stroke="none"
	d="
M309.687866,393.628632
	C304.887939,399.488403 302.179382,406.763702 294.857056,409.853363
	C292.528381,410.835938 290.110229,412.300934 287.927612,410.157318
	C285.478271,407.751709 287.748383,405.617584 288.927856,403.505951
	C295.746399,391.298553 302.234863,378.965912 304.032837,364.792725
	C304.472870,361.324036 306.234955,359.177734 309.892975,358.301697
	C313.914459,357.338623 317.797272,355.781494 321.717743,354.417664
	C323.830566,353.682678 325.832123,353.014740 327.659485,355.066101
	C329.467621,357.095886 328.581818,359.104279 327.760651,361.115448
	C323.086304,372.563721 316.685486,383.057098 309.687866,393.628632
z"/>
<path fill="#383296" opacity="1.000000" stroke="none"
	d="
M243.998383,320.847656
	C249.329178,320.883606 254.161194,320.878876 258.991486,320.968750
	C262.348785,321.031219 264.289398,322.627869 264.292023,326.187866
	C264.294708,329.790131 261.815491,330.799988 258.984985,330.801086
	C250.494034,330.804443 242.003433,330.514893 233.511780,330.423157
	C227.022049,330.353027 220.521851,330.620056 214.043518,330.339539
	C209.378464,330.137543 207.961212,332.048065 208.020264,336.514679
	C208.216309,351.340485 208.110733,366.170227 208.134506,380.998444
	C208.140167,384.528778 207.146042,387.692535 203.076492,387.572784
	C198.834366,387.447937 197.938095,384.178497 197.958527,380.432983
	C198.035736,366.272491 197.995316,352.111359 198.025269,337.950531
	C198.040970,330.522369 197.527222,329.913208 190.038956,330.513428
	C175.548615,331.674927 161.071518,329.725220 146.585297,330.458740
	C143.934708,330.592957 142.108566,329.448517 141.811584,326.511292
	C141.530792,323.734192 142.855225,321.976593 145.339905,321.215912
	C146.731812,320.789764 148.298752,320.840637 149.787033,320.838776
	C163.948730,320.821075 178.112839,320.696014 192.270828,320.929779
	C196.652481,321.002106 198.092560,319.610260 197.998398,315.207336
	C197.688843,300.731232 198.673355,286.248871 197.954376,271.765900
	C197.830338,269.267456 197.704926,266.611267 200.320435,265.107819
	C204.497299,262.706848 208.003067,265.033478 208.045593,270.425476
	C208.161255,285.086273 208.317719,299.751587 208.053009,314.407806
	C207.962997,319.390747 209.349228,321.166718 214.513351,320.959076
	C224.161087,320.571228 233.835541,320.847382 243.998383,320.847656
z"/>
<path fill="#383296" opacity="1.000000" stroke="none"
	d="
M484.999939,320.849579
	C491.826355,320.858704 498.153992,320.799072 504.478729,320.907745
	C507.862030,320.965912 511.108490,321.788788 510.968964,326.062164
	C510.834167,330.190247 507.592743,330.397736 504.431702,330.397491
	C475.797333,330.395172 447.162933,330.400879 418.528564,330.400391
	C410.383148,330.400238 402.237213,330.331390 394.092560,330.407928
	C390.757904,330.439240 387.930878,330.003021 387.973572,325.797607
	C388.014465,321.767548 390.796234,320.893158 394.094818,320.886932
	C411.909332,320.853333 429.723938,320.848785 447.538513,320.842621
	C459.859009,320.838348 472.179474,320.847626 484.999939,320.849579
z"/>
</svg>